# xmcd CD database file
#
# Track frame offsets:
#	150
#	13966
#	29610
#	39905
#	59605
#	72628
#	84029
#	92811
#	103526
#	124136
#	148364
#	163613
#	174937
#	179322
#	193563
#	207004
#
# Disc length: 2951 seconds
#
# Revision: 2
# Processed by: cddbd v1.5.2PL0 Copyright (c) Steve Scherf et al.
# Submitted via: CDex 1.72
#
DISCID=df0b8510
DTITLE=Lenoir, JB (USA-04-Alabama Blues-bls) - Alabama Blues
DYEAR=2004
DGENRE=Blues
TTITLE0=Alabama Blues
TTITLE1=God's Word
TTITLE2=The Whale
TTITLE3=Remove This Rope
TTITLE4=I Feel So Good
TTITLE5=Ma'm Talk To Your Daughter
TTITLE6=My Name Is J.B Lenoir
TTITLE7=I Want The Whole World To Know
TTITLE8=Alabama March
TTITLE9=Fox Squirrel
TTITLE10=I Feel So Good
TTITLE11=One Of These Mornings
TTITLE12=Mumble Low
TTITLE13=When My Left Eye Jumps
TTITLE14=Mama Talk To Your Daughter
TTITLE15=My Mama Told Me
EXTD=YEAR: 2004
EXTT0=
EXTT1=
EXTT2=
EXTT3=
EXTT4=
EXTT5=
EXTT6=
EXTT7=
EXTT8=
EXTT9=
EXTT10=
EXTT11=
EXTT12=
EXTT13=
EXTT14=
EXTT15=
PLAYORDER=
